<?xml version="1.0" encoding="UTF-8" standalone="no"?>
<svg
   xmlns:dc="http://purl.org/dc/elements/1.1/"
   xmlns:cc="http://creativecommons.org/ns#"
   xmlns:rdf="http://www.w3.org/1999/02/22-rdf-syntax-ns#"
   xmlns:svg="http://www.w3.org/2000/svg"
   xmlns="http://www.w3.org/2000/svg"
   width="486.47211mm"
   height="126.12489mm"
   viewBox="0 0 1723.7201 446.8992"
   id="svg4961"
   version="1.1">
  <defs
     id="defs4963">
    <filter
       style="color-interpolation-filters:sRGB"
       id="filter4278">
      <feFlood
         flood-opacity="0.247059"
         flood-color="rgb(0,0,0)"
         result="flood"
         id="feFlood4280" />
      <feComposite
         in="flood"
         in2="SourceGraphic"
         operator="in"
         result="composite1"
         id="feComposite4282" />
      <feGaussianBlur
         in="composite1"
         stdDeviation="3"
         result="blur"
         id="feGaussianBlur4284" />
      <feOffset
         dx="6"
         dy="6"
         result="offset"
         id="feOffset4286" />
      <feComposite
         in="SourceGraphic"
         in2="offset"
         operator="over"
         result="composite2"
         id="feComposite4288" />
    </filter>
    <filter
       style="color-interpolation-filters:sRGB"
       id="filter4290">
      <feFlood
         flood-opacity="0.247059"
         flood-color="rgb(0,0,0)"
         result="flood"
         id="feFlood4292" />
      <feComposite
         in="flood"
         in2="SourceGraphic"
         operator="in"
         result="composite1"
         id="feComposite4294" />
      <feGaussianBlur
         in="composite1"
         stdDeviation="3"
         result="blur"
         id="feGaussianBlur4296" />
      <feOffset
         dx="6"
         dy="6"
         result="offset"
         id="feOffset4298" />
      <feComposite
         in="SourceGraphic"
         in2="offset"
         operator="over"
         result="composite2"
         id="feComposite4300" />
    </filter>
    <filter
       style="color-interpolation-filters:sRGB"
       id="filter4266">
      <feFlood
         flood-opacity="0.247059"
         flood-color="rgb(0,0,0)"
         result="flood"
         id="feFlood4268" />
      <feComposite
         in="flood"
         in2="SourceGraphic"
         operator="in"
         result="composite1"
         id="feComposite4270" />
      <feGaussianBlur
         in="composite1"
         stdDeviation="3"
         result="blur"
         id="feGaussianBlur4272" />
      <feOffset
         dx="6"
         dy="6"
         result="offset"
         id="feOffset4274" />
      <feComposite
         in="SourceGraphic"
         in2="offset"
         operator="over"
         result="composite2"
         id="feComposite4276" />
    </filter>
    <filter
       style="color-interpolation-filters:sRGB"
       id="filter4944">
      <feFlood
         flood-opacity="0.247059"
         flood-color="rgb(0,0,0)"
         result="flood"
         id="feFlood4946" />
      <feComposite
         in="flood"
         in2="SourceGraphic"
         operator="in"
         result="composite1"
         id="feComposite4948" />
      <feGaussianBlur
         in="composite1"
         stdDeviation="3"
         result="blur"
         id="feGaussianBlur4950" />
      <feOffset
         dx="6"
         dy="6"
         result="offset"
         id="feOffset4952" />
      <feComposite
         in="SourceGraphic"
         in2="offset"
         operator="over"
         result="composite2"
         id="feComposite4954" />
    </filter>
  </defs>
  <metadata
     id="metadata4966">
    <rdf:RDF>
      <cc:Work
         rdf:about="">
        <dc:format>image/svg+xml</dc:format>
        <dc:type
           rdf:resource="http://purl.org/dc/dcmitype/StillImage" />
        <dc:title></dc:title>
      </cc:Work>
    </rdf:RDF>
  </metadata>
  <g
     id="layer1"
     transform="translate(1990.4315,53.94454)">
    <path
       style="font-style:normal;font-variant:normal;font-weight:bold;font-stretch:normal;font-size:medium;line-height:125%;font-family:Ubuntu;-inkscape-font-specification:'Ubuntu Bold';letter-spacing:0px;word-spacing:0px;fill:#ffffff;fill-opacity:1;stroke:none;filter:url(#filter4266)"
       d="m -1901.6963,33.091447 0,278.982423 186.3926,0 0,-53.94531 -123.5899,0 0,-225.037113 -62.8027,0 z m 806.8359,4.83008 -59.9824,9.66211 0,177.937503 c 0,13.68748 1.2076,26.1674 3.6231,37.43945 2.6838,11.27203 7.2463,20.93291 13.6875,28.98437 6.4411,7.78307 15.0283,13.95505 25.7636,18.51758 10.7353,4.29407 24.2889,6.44141 40.6602,6.44141 12.8823,0 23.7527,-1.07364 32.6093,-3.2207 8.8566,-2.147 16.908,-4.69624 24.1543,-7.64844 l -8.455,-46.69727 c -5.6361,2.14706 -11.942,3.89051 -18.92,5.23242 -6.7095,1.07353 -13.2854,1.61133 -19.7265,1.61133 -13.4191,0 -22.4102,-3.75874 -26.9727,-11.27344 -4.2941,-7.5147 -6.4414,-17.5794 -6.4414,-30.19335 l 0,-74.47461 72.0606,0 0,-49.91993 -72.0606,0 0,-62.398433 z m -609.3535,62.398433 0,117.95508 c 0,14.49263 1.4755,27.77632 4.4277,39.85352 2.9522,12.07719 7.9166,22.54376 14.8946,31.40039 6.9779,8.5882 16.3728,15.29804 28.1816,20.1289 12.0772,4.83087 27.1063,7.2461 45.0879,7.2461 17.7132,0 34.6217,-1.34159 50.7246,-4.02539 16.1029,-2.41547 29.2527,-5.09858 39.4512,-8.05078 l 0,-204.50782 -59.9824,0 0,163.44532 c -3.7574,0.53676 -8.052,1.07261 -12.8828,1.60937 -4.8309,0.26839 -9.3934,0.40235 -13.6875,0.40235 -13.9559,0 -23.4828,-4.29264 -28.5821,-12.88086 -5.0992,-8.58823 -7.6504,-22.54564 -7.6504,-41.86914 l 0,-110.70704 -59.9824,0 z m 209.0234,0 c 12.614,42.40436 25.8977,81.58759 39.8536,117.55079 14.2242,35.96318 28.1816,67.36489 41.8691,94.20312 l 49.918,0 c 13.6875,-26.83823 27.509,-58.23994 41.4648,-94.20312 14.2243,-35.9632 27.6439,-75.14643 40.2578,-117.55079 l -61.9961,0 c -2.6838,10.4669 -5.9047,21.87318 -9.6621,34.21875 -3.4889,12.0772 -7.2457,24.42316 -11.2715,37.03711 -3.7573,12.34558 -7.6481,24.42167 -11.6738,36.23047 -4.0257,11.80881 -7.7845,22.54528 -11.2734,32.20703 -3.7574,-9.66175 -7.6481,-20.39822 -11.6739,-32.20703 -3.7573,-11.8088 -7.65,-23.88489 -11.6757,-36.23047 -3.7574,-12.61395 -7.5142,-24.95991 -11.2715,-37.03711 -3.489,-12.34557 -6.576,-23.75185 -9.2598,-34.21875 l -63.6055,0 z m 237.4551,0 0,211.75391 59.9824,0 0,-211.75391 -59.9824,0 z"
       id="path4871" />
    <path
       style="font-style:normal;font-variant:normal;font-weight:bold;font-stretch:normal;font-size:medium;line-height:125%;font-family:Ubuntu;-inkscape-font-specification:'Ubuntu Bold';letter-spacing:0px;word-spacing:0px;fill:#ff4527;fill-opacity:1;stroke:none;filter:url(#filter4266)"
       d="m -1192.116,39.129157 q 0,16.5055 -10.8694,26.16725 -10.4669,9.25918 -24.9596,9.25918 -14.4926,0 -25.3621,-9.25918 -10.4669,-9.66175 -10.4669,-26.16725 0,-16.50549 10.4669,-25.76467 10.8695,-9.6617497 25.3621,-9.6617497 14.4927,0 24.9596,9.6617497 10.8694,9.25918 10.8694,25.76467 z"
       id="path4879" />
    <path
       style="fill:#ffffff;fill-opacity:1;stroke:#ffffff;stroke-width:36.9048233;stroke-miterlimit:4;stroke-dasharray:none;stroke-opacity:1"
       d="m -462.75785,-16.702913 c -23.046,4.5e-4 -45.3161,4.83835 -62.3605,10.9678003 -3.9914,1.43539 -19.4609,8.26443 -41.8712,18.3727997 l 27.0712,53.12749 c 17.6705,-7.79667 31.6107,-13.90331 34.5456,-15.01959 15.8063,-6.01209 28.8061,-6.91577 43.2099,-6.916 14.815,2.3e-4 26.3519,3.84065 34.5827,11.52666 8.642,7.30229 12.9777,17.49662 12.9778,30.56306 -10e-5,8.83952 -2.0577,16.136223 -6.1728,21.900733 -3.704,5.76494 -8.6643,10.37338 -14.8371,13.83199 -6.1732,3.45906 -13.1538,5.97274 -20.9728,7.50974 -15.3802,2.96647 -34.7667,2.32668 -51.8741,2.30533 l 0,58.78604 23.4642,0 c 24.6919,1.1e-4 45.0834,3.84043 61.1334,11.52666 16.0496,7.30206 24.059,20.39423 24.0592,39.22552 -2e-4,15.37281 -5.3646,28.22039 -16.0643,38.5969 -10.2885,10.3766 -28.4019,15.5785 -54.3284,15.5785 -20.9883,0 -40.2612,-3.04 -54.2912,-6.3572 -1.5607,-0.3691 -6.5988,-2.1218 -13.61,-4.6805 l -24.7285,56.0265 c 3.2787,1.2296 5.567,2.0794 6.21,2.2704 9.4592,2.8115 17.0853,4.4357 26.5506,6.3572 9.8768,1.9215 19.9808,3.4576 30.2693,4.6106 10.6997,1.5372 20.7666,2.3053 30.232,2.3053 25.5149,0 47.5227,-2.6883 66.0419,-8.0686 18.5188,-5.7647 33.7666,-13.655 45.7013,-23.6472 11.9342,-10.3765 20.7889,-22.4909 26.5506,-36.3265 5.7613,-13.83514 8.6269,-28.98708 8.6272,-45.51267 -3e-4,-20.75291 -5.5482,-38.62798 -16.6593,-53.6165 -10.7001,-14.98807 -25.9479,-26.33456 -45.7013,-34.02113 14.4035,-6.91745 25.9403,-16.9023 34.5828,-29.96932 8.6419,-13.06645 12.9775,-26.717153 12.9778,-40.937113 -3e-4,-14.21941 -2.499,-27.48605 -7.4371,-39.7844 -4.9387,-12.29779 -12.544,-22.84129 -22.8321,-31.68091 -10.2885,-9.2232397 -23.4417,-16.3453397 -39.4913,-21.3417397 -15.6384,-4.9957203 -34.1559,-7.5094003 -55.5555,-7.5098503 z m -189.5731,68.21694 c -74.8842,34.25596 -166.3242,76.301313 -229.5849,105.102153 l 0,0.0693 c -0.062,19.7401 -0.012,39.64904 0,59.4502 0,0 135.176,52.86186 231.3699,90.22234 l 24.5426,-55.71217 c -79.1024,-30.55173 -175.2194,-68.2169 -175.2194,-68.2169 0,0 93.4705,-41.93 175.554,-78.55601 z"
       id="path4883" />
    <path
       id="path4885"
       transform="matrix(1.2058929,0,0,1.117737,-836.12895,-207.52157)"
       d="M 253.14453,210.94922 136.82422,269.10938 253.14453,210.94922 Z M 141.59766,426.61719 254.20508,472.75586 141.59766,426.61719 Z"
       style="fill:#ff4527;fill-rule:evenodd;stroke:#ffbf27;stroke-width:30;stroke-linecap:butt;stroke-linejoin:miter;stroke-miterlimit:4;stroke-dasharray:none;stroke-opacity:1;filter:url(#filter4290)" />
    <path
       transform="matrix(1.2058929,0,0,1.117737,-836.12895,-811.50437)"
       id="path4887"
       d="m 309.62214,711.0809 c -19.11114,4e-4 -37.57888,4.3287 -51.71316,9.8125 -3.30983,1.2842 -16.13815,7.3939 -34.72213,16.4375 l 22.44913,47.5313 c 14.65346,-6.9754 26.2135,-12.4388 28.64729,-13.4375 13.10758,-5.3788 23.88774,-6.1873 35.83226,-6.1875 12.28552,2e-4 21.85263,3.4361 28.67813,10.3125 7.1665,6.5331 10.76186,15.6536 10.76201,27.3437 -1.5e-4,7.9084 -1.70637,14.4365 -5.11889,19.5938 -3.07158,5.1577 -7.18497,9.2807 -12.30385,12.375 -5.11917,3.0947 -10.90792,5.3436 -17.3919,6.7187 -12.75417,2.654 -28.83067,2.0816 -43.0172,2.0625 l 0,52.5938 19.45796,0 c 20.476,10e-5 37.38595,3.4359 50.69555,10.3125 13.30931,6.5329 19.95117,18.246 19.95134,35.0937 -1.7e-4,13.7535 -4.44864,25.2478 -13.32145,34.5313 -8.53188,9.2836 -23.55264,13.9375 -45.05244,13.9375 -17.40477,0 -33.38706,-2.7198 -45.02159,-5.6875 -1.29422,-0.3302 -5.47213,-1.8983 -11.28623,-4.1875 l -20.50641,50.125 c 2.71891,1.1 4.61655,1.8603 5.14973,2.0312 7.84415,2.5153 14.16819,3.9684 22.01741,5.6875 8.19038,1.7192 16.56929,3.0935 25.10108,4.125 8.87289,1.3753 17.22096,2.0625 25.07024,2.0625 21.15852,0 39.40876,-2.4051 54.76599,-7.2187 15.35691,-5.1575 28.00133,-12.2166 37.89831,-21.1563 9.89658,-9.2835 17.23944,-20.1219 22.01741,-32.5 4.77755,-12.3779 7.15388,-25.9338 7.15412,-40.7187 -2.4e-4,-18.5669 -4.60083,-34.5591 -13.81485,-47.9688 -8.87319,-13.4093 -21.5176,-23.5606 -37.89831,-30.4375 11.94421,-6.1888 21.51128,-15.1219 28.67813,-26.8125 7.16643,-11.6901 10.7618,-23.9029 10.76202,-36.625 -2.2e-4,-12.7216 -2.07233,-24.5908 -6.16734,-35.5937 -4.09544,-11.0024 -10.40221,-20.4353 -18.93374,-28.3438 -8.53189,-8.2517 -19.43928,-14.6236 -32.74859,-19.0937 -12.96834,-4.4695 -28.32419,-6.7184 -46.07003,-6.7188 z M 152.41661,772.1122 C 90.31803,802.7598 14.490433,840.3763 -37.969212,866.1434 l 0,0.062 c -0.05125,17.66077 -0.01027,35.4726 0,53.188 0,0 112.096142,47.2937 191.865982,80.7188 l 20.35222,-49.8438 C 108.65244,922.9349 28.946439,889.2372 28.946439,889.2372 c 0,0 77.511421,-37.5133 145.580091,-70.2813 z"
       style="fill:#fc4a39;fill-opacity:1;stroke:none;stroke-width:31.7876873;stroke-miterlimit:4;stroke-dasharray:none;stroke-opacity:0.50196078;filter:url(#filter4278)" />
  </g>
</svg>
