<?xml version="1.0" encoding="UTF-8" standalone="no"?>
<svg
   xmlns:dc="http://purl.org/dc/elements/1.1/"
   xmlns:cc="http://creativecommons.org/ns#"
   xmlns:rdf="http://www.w3.org/1999/02/22-rdf-syntax-ns#"
   xmlns:svg="http://www.w3.org/2000/svg"
   xmlns="http://www.w3.org/2000/svg"
   width="486.47183mm"
   height="126.12488mm"
   viewBox="0 0 1723.7191 446.89914"
   id="svg4361"
   version="1.1">
  <defs
     id="defs4363">
    <filter
       style="color-interpolation-filters:sRGB"
       id="filter4278">
      <feFlood
         flood-opacity="0.247059"
         flood-color="rgb(0,0,0)"
         result="flood"
         id="feFlood4280" />
      <feComposite
         in="flood"
         in2="SourceGraphic"
         operator="in"
         result="composite1"
         id="feComposite4282" />
      <feGaussianBlur
         in="composite1"
         stdDeviation="3"
         result="blur"
         id="feGaussianBlur4284" />
      <feOffset
         dx="6"
         dy="6"
         result="offset"
         id="feOffset4286" />
      <feComposite
         in="SourceGraphic"
         in2="offset"
         operator="over"
         result="composite2"
         id="feComposite4288" />
    </filter>
    <filter
       style="color-interpolation-filters:sRGB"
       id="filter4290">
      <feFlood
         flood-opacity="0.247059"
         flood-color="rgb(0,0,0)"
         result="flood"
         id="feFlood4292" />
      <feComposite
         in="flood"
         in2="SourceGraphic"
         operator="in"
         result="composite1"
         id="feComposite4294" />
      <feGaussianBlur
         in="composite1"
         stdDeviation="3"
         result="blur"
         id="feGaussianBlur4296" />
      <feOffset
         dx="6"
         dy="6"
         result="offset"
         id="feOffset4298" />
      <feComposite
         in="SourceGraphic"
         in2="offset"
         operator="over"
         result="composite2"
         id="feComposite4300" />
    </filter>
    <filter
       style="color-interpolation-filters:sRGB"
       id="filter4266">
      <feFlood
         flood-opacity="0.247059"
         flood-color="rgb(0,0,0)"
         result="flood"
         id="feFlood4268" />
      <feComposite
         in="flood"
         in2="SourceGraphic"
         operator="in"
         result="composite1"
         id="feComposite4270" />
      <feGaussianBlur
         in="composite1"
         stdDeviation="3"
         result="blur"
         id="feGaussianBlur4272" />
      <feOffset
         dx="6"
         dy="6"
         result="offset"
         id="feOffset4274" />
      <feComposite
         in="SourceGraphic"
         in2="offset"
         operator="over"
         result="composite2"
         id="feComposite4276" />
    </filter>
  </defs>
  <metadata
     id="metadata4366">
    <rdf:RDF>
      <cc:Work
         rdf:about="">
        <dc:format>image/svg+xml</dc:format>
        <dc:type
           rdf:resource="http://purl.org/dc/dcmitype/StillImage" />
        <dc:title></dc:title>
      </cc:Work>
    </rdf:RDF>
  </metadata>
  <g
     id="layer1"
     transform="translate(2913.2882,596.80162)">
    <g
       transform="translate(-1766.0618,-1264.6854)"
       style="font-style:normal;font-weight:normal;font-size:402.57302856px;line-height:125%;font-family:Sans;-inkscape-font-specification:'Ubuntu Bold';letter-spacing:0px;word-spacing:0px;fill:#239dc0;fill-opacity:1;stroke:none;filter:url(#filter4266)"
       id="text4267">
      <path
         d="m -872.09999,979.95707 0,53.94483 -186.39131,0 0,-278.98315 62.80139,0 0,225.03832 123.58992,0 z"
         style="font-style:normal;font-variant:normal;font-weight:bold;font-stretch:normal;font-family:Ubuntu;-inkscape-font-specification:'Ubuntu Bold';fill:#239dc0;fill-opacity:1"
         id="path4319" />
      <path
         d="m -678.24172,1026.6555 q -15.29778,4.4283 -39.45216,8.0515 -24.15438,4.0257 -50.7242,4.0257 -26.97239,0 -45.08818,-7.2463 -17.71321,-7.2463 -28.18011,-20.1286 -10.4669,-13.28494 -14.8952,-31.40073 -4.42831,-18.11579 -4.42831,-39.85473 l 0,-117.9539 59.98338,0 0,110.70759 q 0,28.98525 7.64889,41.86759 7.64889,12.88234 28.58269,12.88234 6.44117,0 13.68748,-0.40258 7.24631,-0.80514 12.88234,-1.61029 l 0,-163.44465 59.98338,0 0,204.50706 z"
         style="font-style:normal;font-variant:normal;font-weight:bold;font-stretch:normal;font-family:Ubuntu;-inkscape-font-specification:'Ubuntu Bold';fill:#239dc0;fill-opacity:1"
         id="path4321" />
      <path
         d="m -570.26409,1033.9019 q -20.53123,-40.25735 -41.8676,-94.20213 -20.93379,-53.94479 -39.85473,-117.55133 l 63.60654,0 q 4.02573,15.70035 9.25918,34.21871 5.63602,18.11579 11.27205,37.03672 6.03859,18.51836 11.67462,36.23157 6.03859,17.71321 11.67461,32.20584 5.23345,-14.49263 11.27205,-32.20584 6.03859,-17.71321 11.67462,-36.23157 6.03859,-18.92093 11.27204,-37.03672 5.63602,-18.51836 9.66175,-34.21871 l 61.99625,0 q -18.92093,63.60654 -40.2573,117.55133 -20.9338,53.94478 -41.46503,94.20213 l -49.91905,0 z"
         style="font-style:normal;font-variant:normal;font-weight:bold;font-stretch:normal;font-family:Ubuntu;-inkscape-font-specification:'Ubuntu Bold';fill:#239dc0;fill-opacity:1"
         id="path4323" />
      <path
         style="font-style:normal;font-variant:normal;font-weight:bold;font-stretch:normal;font-family:Ubuntu;-inkscape-font-specification:'Ubuntu Bold';fill:#239dc0;fill-opacity:1"
         d="m -354.54769,1033.9019 -59.98338,0 0,-211.75346 59.98338,0 0,211.75346 z"
         id="path4331" />
      <path
         style="font-style:normal;font-variant:normal;font-weight:bold;font-stretch:normal;font-family:Ubuntu;-inkscape-font-specification:'Ubuntu Bold';fill:#ff4527;fill-opacity:1"
         d="m -348.91167,760.95734 q 0,16.5055 -10.86947,26.16725 -10.4669,9.25918 -24.95953,9.25918 -14.49262,0 -25.3621,-9.25918 -10.4669,-9.66175 -10.4669,-26.16725 0,-16.50549 10.4669,-25.76467 10.86948,-9.66175 25.3621,-9.66175 14.49263,0 24.95953,9.66175 10.86947,9.25918 10.86947,25.76467 z"
         id="path4325" />
      <path
         d="m -311.63878,769.41138 59.98338,-9.66176 0,62.39882 72.06057,0 0,49.91906 -72.06057,0 0,74.47601 q 0,18.92093 6.44117,30.19298 6.84374,11.27204 26.97239,11.27204 9.66175,0 19.72608,-1.61029 10.4669,-2.01287 18.92093,-5.23345 l 8.45403,46.69851 q -10.86947,4.4283 -24.15438,7.6488 -13.28491,3.2206 -32.60841,3.2206 -24.55696,0 -40.65988,-6.4411 -16.10292,-6.8438 -25.76467,-18.5184 -9.66176,-12.0772 -13.68749,-28.98525 -3.62315,-16.90807 -3.62315,-37.4393 l 0,-177.93727 z"
         style="font-style:normal;font-variant:normal;font-weight:bold;font-stretch:normal;font-family:Ubuntu;-inkscape-font-specification:'Ubuntu Bold';fill:#239dc0;fill-opacity:1"
         id="path4327" />
    </g>
    <path
       id="path3017"
       d="m -1385.6154,-559.5601 c -23.046,4.5e-4 -45.3161,4.83835 -62.3606,10.9678 -3.9913,1.43539 -19.4609,8.26443 -41.8711,18.3728 l 27.0712,53.12749 c 17.6705,-7.79667 31.6107,-13.90331 34.5456,-15.01959 15.8063,-6.01209 28.806,-6.91577 43.2098,-6.916 14.8151,2.3e-4 26.352,3.84065 34.5828,11.52666 8.642,7.30229 12.9776,17.49662 12.9778,30.56306 -2e-4,8.83952 -2.0577,16.13622 -6.1728,21.90073 -3.704,5.76494 -8.6643,10.37338 -14.8371,13.83199 -6.1732,3.45906 -13.1538,5.97274 -20.9728,7.50974 -15.3802,2.96647 -34.7667,2.32668 -51.8741,2.30533 l 0,58.78604 23.4642,0 c 24.6918,1.1e-4 45.0834,3.84043 61.1334,11.52666 16.0496,7.30206 24.059,20.39423 24.0592,39.22552 -2e-4,15.37281 -5.3646,28.22039 -16.0643,38.5969 -10.2885,10.3766 -28.4019,15.5785 -54.3284,15.5785 -20.9883,0 -40.2612,-3.04 -54.2912,-6.3572 -1.5607,-0.3691 -6.5988,-2.1218 -13.61,-4.6805 l -24.7285,56.0265 c 3.2787,1.2296 5.567,2.0794 6.21,2.2704 9.4592,2.8115 17.0853,4.4357 26.5506,6.3572 9.8767,1.9215 19.9808,3.4576 30.2692,4.6106 10.6998,1.5372 20.7667,2.3053 30.2321,2.3053 25.5149,0 47.5227,-2.6883 66.0419,-8.0686 18.5188,-5.7647 33.7666,-13.655 45.7013,-23.6472 11.9342,-10.3765 20.7889,-22.4909 26.5506,-36.3265 5.7612,-13.83514 8.6268,-28.98708 8.6271,-45.51267 -3e-4,-20.75291 -5.5481,-38.62798 -16.6592,-53.6165 -10.7001,-14.98807 -25.9479,-26.33456 -45.7013,-34.02113 14.4034,-6.91745 25.9403,-16.9023 34.5827,-29.96932 8.642,-13.06645 12.9776,-26.71715 12.9779,-40.93711 -3e-4,-14.21941 -2.499,-27.48605 -7.4372,-39.7844 -4.9386,-12.29779 -12.5439,-22.84129 -22.832,-31.68091 -10.2886,-9.22324 -23.4417,-16.34534 -39.4913,-21.34174 -15.6384,-4.99572 -34.156,-7.5094 -55.5555,-7.50985 z m -189.5731,68.21694 c -74.8842,34.25596 -166.3242,76.30131 -229.5849,105.10215 l 0,0.0693 c -0.062,19.7401 -0.012,39.64904 0,59.4502 0,0 135.176,52.86186 231.3698,90.22234 l 24.5426,-55.71217 c -79.1024,-30.55173 -175.2193,-68.2169 -175.2193,-68.2169 0,0 93.4705,-41.93 175.554,-78.55601 z"
       style="fill:#ffcd57;fill-opacity:1;stroke:#48acc8;stroke-width:36.9048233;stroke-miterlimit:4;stroke-dasharray:none;stroke-opacity:1" />
    <path
       style="fill:#ff4527;fill-rule:evenodd;stroke:#ffbf27;stroke-width:30;stroke-linecap:butt;stroke-linejoin:miter;stroke-miterlimit:4;stroke-dasharray:none;stroke-opacity:1;filter:url(#filter4290)"
       d="M 253.14453,210.94922 136.82422,269.10938 253.14453,210.94922 Z M 141.59766,426.61719 254.20508,472.75586 141.59766,426.61719 Z"
       transform="matrix(1.2058929,0,0,1.117737,-1758.9865,-750.37873)"
       id="path4151" />
    <path
       style="fill:#02546c;fill-opacity:1;stroke:none;stroke-width:31.7876873;stroke-miterlimit:4;stroke-dasharray:none;stroke-opacity:0.50196078;filter:url(#filter4278)"
       d="m 309.62214,711.0809 c -19.11114,4e-4 -37.57888,4.3287 -51.71316,9.8125 -3.30983,1.2842 -16.13815,7.3939 -34.72213,16.4375 l 22.44913,47.5313 c 14.65346,-6.9754 26.2135,-12.4388 28.64729,-13.4375 13.10758,-5.3788 23.88774,-6.1873 35.83226,-6.1875 12.28552,2e-4 21.85263,3.4361 28.67813,10.3125 7.1665,6.5331 10.76186,15.6536 10.76201,27.3437 -1.5e-4,7.9084 -1.70637,14.4365 -5.11889,19.5938 -3.07158,5.1577 -7.18497,9.2807 -12.30385,12.375 -5.11917,3.0947 -10.90792,5.3436 -17.3919,6.7187 -12.75417,2.654 -28.83067,2.0816 -43.0172,2.0625 l 0,52.5938 19.45796,0 c 20.476,10e-5 37.38595,3.4359 50.69555,10.3125 13.30931,6.5329 19.95117,18.246 19.95134,35.0937 -1.7e-4,13.7535 -4.44864,25.2478 -13.32145,34.5313 -8.53188,9.2836 -23.55264,13.9375 -45.05244,13.9375 -17.40477,0 -33.38706,-2.7198 -45.02159,-5.6875 -1.29422,-0.3302 -5.47213,-1.8983 -11.28623,-4.1875 l -20.50641,50.125 c 2.71891,1.1 4.61655,1.8603 5.14973,2.0312 7.84415,2.5153 14.16819,3.9684 22.01741,5.6875 8.19038,1.7192 16.56929,3.0935 25.10108,4.125 8.87289,1.3753 17.22096,2.0625 25.07024,2.0625 21.15852,0 39.40876,-2.4051 54.76599,-7.2187 15.35691,-5.1575 28.00133,-12.2166 37.89831,-21.1563 9.89658,-9.2835 17.23944,-20.1219 22.01741,-32.5 4.77755,-12.3779 7.15388,-25.9338 7.15412,-40.7187 -2.4e-4,-18.5669 -4.60083,-34.5591 -13.81485,-47.9688 -8.87319,-13.4093 -21.5176,-23.5606 -37.89831,-30.4375 11.94421,-6.1888 21.51128,-15.1219 28.67813,-26.8125 7.16643,-11.6901 10.7618,-23.9029 10.76202,-36.625 -2.2e-4,-12.7216 -2.07233,-24.5908 -6.16734,-35.5937 -4.09544,-11.0024 -10.40221,-20.4353 -18.93374,-28.3438 -8.53189,-8.2517 -19.43928,-14.6236 -32.74859,-19.0937 -12.96834,-4.4695 -28.32419,-6.7184 -46.07003,-6.7188 z M 152.41661,772.1122 C 90.31803,802.7598 14.490433,840.3763 -37.969212,866.1434 l 0,0.062 c -0.05125,17.66077 -0.01027,35.4726 0,53.188 0,0 112.096142,47.2937 191.865982,80.7188 l 20.35222,-49.8438 C 108.65244,922.9349 28.946439,889.2372 28.946439,889.2372 c 0,0 77.511421,-37.5133 145.580091,-70.2813 z"
       id="path4156"
       transform="matrix(1.2058929,0,0,1.117737,-1758.9865,-1354.3615)" />
  </g>
</svg>
