<?xml version="1.0" encoding="UTF-8" standalone="no"?>
<svg
   xmlns:dc="http://purl.org/dc/elements/1.1/"
   xmlns:cc="http://creativecommons.org/ns#"
   xmlns:rdf="http://www.w3.org/1999/02/22-rdf-syntax-ns#"
   xmlns:svg="http://www.w3.org/2000/svg"
   xmlns="http://www.w3.org/2000/svg"
   version="1.1"
   id="svg5078"
   viewBox="0 0 445.8508 96.766552"
   height="27.309671mm"
   width="125.829mm">
  <defs
     id="defs5080" />
  <metadata
     id="metadata5083">
    <rdf:RDF>
      <cc:Work
         rdf:about="">
        <dc:format>image/svg+xml</dc:format>
        <dc:type
           rdf:resource="http://purl.org/dc/dcmitype/StillImage" />
        <dc:title></dc:title>
      </cc:Work>
    </rdf:RDF>
  </metadata>
  <g
     transform="translate(2857.2111,661.73536)"
     id="layer1">
    <path
       id="path4871"
       d="m -2857.2111,-652.65543 0,86.19432 57.5878,0 0,-16.66693 -38.1843,0 0,-69.52739 -19.4035,0 z m 249.2798,1.4923 -18.5321,2.9852 0,54.97551 c 0,4.22888 0.3731,8.08468 1.1193,11.56729 0.8292,3.4826 2.2388,6.46742 4.2289,8.955 1.9901,2.40465 4.6432,4.31154 7.9599,5.72118 3.3168,1.3267 7.5043,1.99014 12.5624,1.99014 3.9801,0 7.3386,-0.33171 10.075,-0.99507 2.7363,-0.66333 5.2239,-1.45095 7.4627,-2.36306 l -2.6123,-14.42757 c -1.7413,0.66335 -3.6896,1.20201 -5.8455,1.61661 -2.073,0.33167 -4.1047,0.49783 -6.0947,0.49783 -4.146,0 -6.9238,-1.1613 -8.3335,-3.48304 -1.3267,-2.32174 -1.9901,-5.43132 -1.9901,-9.32852 l 0,-23.00966 22.2638,0 0,-15.42324 -22.2638,0 0,-19.2786 z m -188.2657,19.2786 0,36.44336 c 0,4.47764 0.4559,8.58176 1.368,12.31313 0.9121,3.73137 2.4459,6.96512 4.6018,9.70146 2.1559,2.6534 5.0586,4.72647 8.707,6.21902 3.7314,1.49254 8.3748,2.23875 13.9304,2.23875 5.4726,0 10.6966,-0.4145 15.6718,-1.24368 4.9752,-0.74629 9.0379,-1.57526 12.1888,-2.48737 l 0,-63.18467 -18.5321,0 0,50.49801 c -1.1609,0.16584 -2.4877,0.3314 -3.9803,0.49723 -1.4925,0.0829 -2.9022,0.12431 -4.2289,0.12431 -4.3118,0 -7.2552,-1.32625 -8.8307,-3.97966 -1.5754,-2.65342 -2.3636,-6.9657 -2.3636,-12.93588 l 0,-34.20401 -18.5322,0 z m 64.5798,0 c 3.8973,13.10124 8.0014,25.20727 12.3132,36.31845 4.3947,11.11118 8.707,20.81304 12.9359,29.10497 l 15.4226,0 c 4.2289,-8.29193 8.4991,-17.99379 12.811,-29.10497 4.3947,-11.11118 8.5408,-23.21721 12.438,-36.31845 l -19.1543,0 c -0.8292,3.23385 -1.8243,6.75793 -2.9852,10.57221 -1.078,3.73137 -2.2387,7.54577 -3.4824,11.44298 -1.1609,3.81428 -2.363,7.54531 -3.6068,11.19375 -1.2438,3.64845 -2.4051,6.96558 -3.483,9.95067 -1.1609,-2.98509 -2.363,-6.30222 -3.6068,-9.95067 -1.1609,-3.64844 -2.3635,-7.37947 -3.6073,-11.19375 -1.1609,-3.89721 -2.3216,-7.71161 -3.4825,-11.44298 -1.0779,-3.81428 -2.0316,-7.33836 -2.8608,-10.57221 l -19.6516,0 z m 73.3641,0 0,65.42342 18.5321,0 0,-65.42342 -18.5321,0 z"
       style="font-style:normal;font-variant:normal;font-weight:bold;font-stretch:normal;font-size:medium;line-height:125%;font-family:Ubuntu;-inkscape-font-specification:'Ubuntu Bold';letter-spacing:0px;word-spacing:0px;fill:#ffffff;fill-opacity:1;stroke:none" />
    <path
       id="path4879"
       d="m -2637.9794,-650.79003 q 0,5.09954 -3.3582,8.08463 -3.2339,2.86071 -7.7115,2.86071 -4.4776,0 -7.8358,-2.86071 -3.2339,-2.98509 -3.2339,-8.08463 0,-5.09953 3.2339,-7.96024 3.3582,-2.98509 7.8358,-2.98509 4.4776,0 7.7115,2.98509 3.3582,2.86071 3.3582,7.96024 z"
       style="font-style:normal;font-variant:normal;font-weight:bold;font-stretch:normal;font-size:medium;line-height:125%;font-family:Ubuntu;-inkscape-font-specification:'Ubuntu Bold';letter-spacing:0px;word-spacing:0px;fill:#ff6d57;fill-opacity:1;stroke:none" />
    <path
       style="color:#000000;font-style:normal;font-variant:normal;font-weight:normal;font-stretch:normal;font-size:medium;line-height:normal;font-family:sans-serif;text-indent:0;text-align:start;text-decoration:none;text-decoration-line:none;text-decoration-style:solid;text-decoration-color:#000000;letter-spacing:normal;word-spacing:normal;text-transform:none;direction:ltr;block-progression:tb;writing-mode:lr-tb;baseline-shift:baseline;text-anchor:start;white-space:normal;clip-rule:nonzero;display:inline;overflow:visible;visibility:visible;opacity:1;isolation:auto;mix-blend-mode:normal;color-interpolation:sRGB;color-interpolation-filters:linearRGB;solid-color:#000000;solid-opacity:1;fill:#ffcd57;fill-opacity:1;fill-rule:evenodd;stroke:none;stroke-width:10.76086617;stroke-linecap:butt;stroke-linejoin:miter;stroke-miterlimit:4;stroke-dasharray:none;stroke-dashoffset:0;stroke-opacity:1;color-rendering:auto;image-rendering:auto;shape-rendering:auto;text-rendering:auto;enable-background:accumulate"
       d="m -2461.5852,-646.59703 -32.6846,15.14844 3.4129,7.36357 32.6847,-15.14844 -3.413,-7.36357 z m -28.1964,56.05836 -2.8812,7.58747 31.6417,12.01682 2.8812,-7.58748 -31.6417,-12.01681 z"
       id="path4885" />
    <path
       style="fill:#ffffff;fill-opacity:1;stroke:none;stroke-width:31.7876873;stroke-miterlimit:4;stroke-dasharray:none;stroke-opacity:0.50196078"
       d="m -2444.0089,-653.3927 c -5.37,1.1e-4 -10.5593,1.12739 -14.5308,2.55562 -0.93,0.33447 -4.5346,1.92571 -9.7564,4.28108 l 6.3079,12.37932 c 4.1174,-1.81671 7.3656,-3.23963 8.0495,-3.49974 3.683,-1.40088 6.7121,-1.61145 10.0684,-1.6115 3.4521,5e-5 6.1403,0.89492 8.0582,2.68584 2.0136,1.70152 3.0239,4.07692 3.0239,7.12155 0,2.05971 -0.4794,3.75993 -1.4383,5.10313 -0.863,1.3433 -2.0189,2.41711 -3.4572,3.22301 -1.4384,0.806 -3.065,1.39172 -4.8869,1.74985 -3.5838,0.69123 -8.1011,0.54215 -12.0873,0.53718 l 0,13.69782 5.4674,0 c 5.7535,3e-5 10.505,0.89487 14.2449,2.68585 3.7397,1.70147 5.6059,4.75209 5.606,9.14 -1e-4,3.58205 -1.25,6.57569 -3.7431,8.99353 -2.3974,2.41788 -6.6181,3.62997 -12.6592,3.62997 -4.8905,0 -9.3813,-0.70836 -12.6505,-1.48129 -0.3637,-0.086 -1.5375,-0.4944 -3.1712,-1.09061 l -5.7621,13.05484 c 0.7639,0.28649 1.2972,0.48451 1.447,0.52902 2.2041,0.6551 3.9811,1.03355 6.1866,1.48128 2.3014,0.44776 4.6557,0.80569 7.0531,1.07434 2.4931,0.35819 4.8389,0.53717 7.0444,0.53717 5.9453,0 11.0733,-0.6264 15.3885,-1.88008 4.3152,-1.34325 7.868,-3.18177 10.649,-5.51007 2.7808,-2.41785 4.844,-5.24066 6.1866,-8.46448 1.3424,-3.22377 2.0101,-6.75435 2.0102,-10.60501 -1e-4,-4.83567 -1.2928,-9.00077 -3.8818,-12.49327 -2.4933,-3.4924 -6.0461,-6.13626 -10.6489,-7.92732 3.3562,-1.61185 6.0444,-3.93844 8.0582,-6.9832 2.0136,-3.04463 3.0239,-6.22541 3.024,-9.53883 -1e-4,-3.31328 -0.5824,-6.40457 -1.733,-9.27022 -1.1507,-2.86553 -2.9229,-5.32229 -5.3202,-7.38202 -2.3973,-2.14912 -5.4621,-3.80866 -9.2019,-4.97288 -3.6439,-1.16406 -7.9587,-1.74977 -12.945,-1.74988 z m -44.1727,15.89534 c -17.4489,7.98204 -38.7555,17.77909 -53.496,24.49002 l 0,0.0161 c -0.014,4.59968 0,9.23869 0,13.8526 0,0 31.4975,12.31744 53.9118,21.02286 l 5.7187,-12.98161 c -18.4317,-7.11889 -40.8281,-15.89531 -40.8281,-15.89531 0,0 21.7797,-9.77018 40.9061,-18.30447 z"
       id="path4887" />
  </g>
</svg>
